/* XPM */
static char * C:\Users\YYTU310A\Desktop\nanovasya_medium\xfwm4\close_inactive_xpm[] = {
"36 24 13 1",
" 	c None",
".	c #4B4F5A",
"+	c #4C505A",
"@	c #AA0909",
"#	c #DC1F1F",
"$	c #4C4F58",
"%	c #FF0000",
"&	c #4D5059",
"*	c #4A4D58",
"=	c #4F525A",
"-	c #4A4E58",
";	c #4B4F59",
">	c #4D515A",
"....................................",
"....................................",
"....................................",
"....................................",
"....................................",
"....................................",
"....................................",
"..............+......+..............",
".............@#$....$#@.............",
".............@%#&..&#%@.............",
".............*@%#==#%@*.............",
"..............-@%##%@-..............",
"...............;@%%@;...............",
"...............&#%%#&...............",
"..............$#%##%#$..............",
".............>#%#--#%#>.............",
".............#%#*..*#%#.............",
".............@@-....-@@.............",
"....................................",
"....................................",
"....................................",
"....................................",
"....................................",
"...................................."};
