/* XPM */
static char * close_pressed_xpm[] = {
"36 24 28 1",
" 	c None",
".	c #DF2029",
"+	c #DF212A",
"@	c #E33E46",
"#	c #ED7176",
"$	c #E34048",
"%	c #E8595F",
"&	c #FBD4D8",
"*	c #F4A7AB",
"=	c #E34149",
"-	c #DF222A",
";	c #E23139",
">	c #EE878E",
",	c #FBD8DB",
"'	c #EE888E",
")	c #F8B7BB",
"!	c #F4A1A4",
"~	c #FCEEF1",
"{	c #E64149",
"]	c #F5AFB3",
"^	c #FCE8EA",
"/	c #F1949A",
"(	c #E85A61",
"_	c #FBCDD0",
":	c #E23239",
"<	c #E22F36",
"[	c #E6474E",
"}	c #E23037",
"....................................",
"....................................",
"....................................",
"....................................",
"....................................",
"....................................",
"....................................",
"..............+......+..............",
".............@#$+..+$#@.............",
".............%&*=--=*&%.............",
".............;>,*==*,>;.............",
"..............;',)),';..............",
"...............;!~~!;...............",
"..............+{]^^]{+..............",
".............+{*,//,*{+.............",
".............@*,>;;>,*@.............",
".............(_>:..:>_(.............",
".............<[}....}[<.............",
"....................................",
"....................................",
"....................................",
"....................................",
"....................................",
"...................................."};
