/* XPM */
static char * C:\Users\YYTU310A\Desktop\nanovasya_medium\xfwm4\hide_active_xpm[] = {
"36 24 5 1",
" 	c None",
".	c #30343F",
"+	c #06520D",
"@	c #179D23",
"#	c #00FF17",
"....................................",
"....................................",
"....................................",
"....................................",
"....................................",
"....................................",
"....................................",
"....................................",
"....................................",
"....................................",
"....................................",
".............+@@@@@@@@+.............",
".............@########@.............",
".............+@@@@@@@@+.............",
"....................................",
"....................................",
"....................................",
"....................................",
"....................................",
"....................................",
"....................................",
"....................................",
"....................................",
"...................................."};
