/* XPM */
static char * C:\Users\YYTU310A\Desktop\nanovasya_medium\xfwm4\maximize_toggled_active_xpm[] = {
"36 24 10 1",
" 	c None",
".	c #30343F",
"+	c #333741",
"@	c #054662",
"#	c #0C729E",
"$	c #40434C",
"%	c #00B2FF",
"&	c #0573A4",
"*	c #393D46",
"=	c #41444C",
"....................................",
"....................................",
"....................................",
"....................................",
"....................................",
"....................................",
"....................................",
"..............+@######@.............",
".............+$%%%%%%&#.............",
".............@%%%%%%&%#.............",
".............#%####&%%#.............",
".............#%*...#%%#.............",
".............#%*...#%%#.............",
".............#%*...#%%#.............",
".............#%=***#%#@.............",
".............#%%%%%%#$+.............",
".............@######@+..............",
"....................................",
"....................................",
"....................................",
"....................................",
"....................................",
"....................................",
"...................................."};
