/* XPM */
static char * C:\Users\YYTU310A\Desktop\nanovasya_medium\xfwm4\maximize_active_xpm[] = {
"36 24 8 1",
" 	c None",
".	c #30343F",
"+	c #065171",
"@	c #1BA1DB",
"#	c #00B2FF",
"$	c #1198D3",
"%	c #41444C",
"&	c #393D46",
"....................................",
"....................................",
"....................................",
"....................................",
"....................................",
"....................................",
"....................................",
".............+@@@@@@@@+.............",
".............@#$$$$$$#@.............",
".............@$%&&&&%$@.............",
".............@$&....&$@.............",
".............@$&....&$@.............",
".............@$&....&$@.............",
".............@$&....&$@.............",
".............@$%&&&&%$@.............",
".............@#$$$$$$#@.............",
".............+@@@@@@@@+.............",
"....................................",
"....................................",
"....................................",
"....................................",
"....................................",
"....................................",
"...................................."};
