<?xml version="1.0" encoding="UTF-8" standalone="no"?>
<svg
   xmlns:dc="http://purl.org/dc/elements/1.1/"
   xmlns:cc="http://creativecommons.org/ns#"
   xmlns:rdf="http://www.w3.org/1999/02/22-rdf-syntax-ns#"
   xmlns:svg="http://www.w3.org/2000/svg"
   xmlns="http://www.w3.org/2000/svg"
   xmlns:xlink="http://www.w3.org/1999/xlink"
   xmlns:sodipodi="http://sodipodi.sourceforge.net/DTD/sodipodi-0.dtd"
   xmlns:inkscape="http://www.inkscape.org/namespaces/inkscape"
   viewBox="0 0 32 32"
   version="1.1"
   id="svg5"
   sodipodi:docname="system-switch-user.svg"
   inkscape:version="1.0.1 (3bc2e813f5, 2020-09-07)">
  <metadata
     id="metadata9">
    <rdf:RDF>
      <cc:Work
         rdf:about="">
        <dc:format>image/svg+xml</dc:format>
        <dc:type
           rdf:resource="http://purl.org/dc/dcmitype/StillImage" />
      </cc:Work>
    </rdf:RDF>
  </metadata>
  <sodipodi:namedview
     pagecolor="#ffffff"
     bordercolor="#666666"
     borderopacity="1"
     objecttolerance="10"
     gridtolerance="10"
     guidetolerance="10"
     inkscape:pageopacity="0"
     inkscape:pageshadow="2"
     inkscape:window-width="1920"
     inkscape:window-height="1007"
     id="namedview7"
     showgrid="false"
     inkscape:zoom="10.746865"
     inkscape:cx="4.1472908"
     inkscape:cy="8.4437991"
     inkscape:window-x="0"
     inkscape:window-y="0"
     inkscape:window-maximized="1"
     inkscape:current-layer="svg5"
     inkscape:document-rotation="0" />
  <defs
     id="defs3051">
    <linearGradient
       inkscape:collect="always"
       id="linearGradient844">
      <stop
         style="stop-color:#dd55ff;stop-opacity:1"
         offset="0"
         id="stop840" />
      <stop
         style="stop-color:#00ccff;stop-opacity:1"
         offset="1"
         id="stop842" />
    </linearGradient>
    <style
       type="text/css"
       id="current-color-scheme">
      .ColorScheme-Text {
        color:#eff0f1;
      }
      </style>
    <linearGradient
       inkscape:collect="always"
       xlink:href="#linearGradient844"
       id="linearGradient1226"
       x1="112.03254"
       y1="16.199593"
       x2="118.15493"
       y2="16.199593"
       gradientUnits="userSpaceOnUse"
       gradientTransform="matrix(0.92307712,0,0,0.92307712,-85.665769,1.281152)" />
    <linearGradient
       inkscape:collect="always"
       xlink:href="#linearGradient844"
       id="linearGradient1218"
       x1="101.832"
       y1="16.199799"
       x2="107.95447"
       y2="16.199799"
       gradientUnits="userSpaceOnUse"
       gradientTransform="matrix(0.92307712,0,0,0.92307712,-85.665769,1.281152)" />
    <linearGradient
       inkscape:collect="always"
       xlink:href="#linearGradient844"
       id="linearGradient1210"
       x1="97.099998"
       y1="16.200001"
       x2="123.1"
       y2="16.200001"
       gradientUnits="userSpaceOnUse"
       gradientTransform="matrix(0.92307712,0,0,0.92307712,-85.665769,1.281152)" />
  </defs>
  <g
     id="g883">
    <path
       d="m 23.40036,16.235009 a 0.5013001,0.5013001 0 0 1 -0.147143,0.355664 l -4.001853,4.001849 a 0.8804017,0.8804017 0 0 1 -1.245076,-1.245076 l 3.112688,-3.112437 -3.112688,-3.112437 a 0.88161408,0.88161408 0 0 1 0,-1.245075 v 0 a 0.88035647,0.88035647 0 0 1 1.245076,0 l 4.0021,4.001848 a 0.5013001,0.5013001 0 0 1 0.146896,0.355664 z m -5.148578,3.734975 a 0.37729562,0.37729562 0 0 0 0.64392,0.266875 l 4.00185,-4.00185 -4.00185,-4.001849 a 0.37729562,0.37729562 0 0 0 -0.533494,0 v 0 a 0.37729562,0.37729562 0 0 0 0,0.533749 l 3.290268,3.290268 a 0.25882476,0.25882476 0 0 1 0,0.355664 l -3.290268,3.290269 a 0.37729562,0.37729562 0 0 0 -0.110426,0.266874 z"
       id="path2"
       style="fill:url(#linearGradient1226);fill-opacity:1.0;stroke-width:0.251531" />
    <path
       d="m 8.333041,16.234552 a 0.50130668,0.50130668 0 0 1 0.14715,-0.355667 l 4.001894,-4.001902 a 0.88041427,0.88041427 0 0 1 1.245094,1.245093 l -3.112727,3.112476 3.112727,3.11248 a 0.8821286,0.8821286 0 0 1 0,1.245093 v 0 a 0.88036804,0.88036804 0 0 1 -1.245094,0 L 8.480191,16.590219 a 0.50130668,0.50130668 0 0 1 -0.14715,-0.355667 z m 5.148644,-3.735023 a 0.37730057,0.37730057 0 0 0 -0.64393,-0.266878 l -4.001894,4.001901 4.001894,4.001902 a 0.37733301,0.37733301 0 1 0 0.533504,-0.533753 l -3.290307,-3.290314 a 0.2588282,0.2588282 0 0 1 0,-0.355669 l 3.290556,-3.290312 a 0.37730057,0.37730057 0 0 0 0.110177,-0.266877 z"
       id="path4-67"
       style="fill:url(#linearGradient1218);fill-opacity:1.0;stroke-width:0.251534" />
    <path
       d="m 15.965032,28.235002 c -2.324074,0 -4.577144,-0.663674 -6.51919,-1.922449 -0.281624,-0.181225 -0.36,-0.555919 -0.17877,-0.837551 0.18123,-0.279184 0.55592,-0.36 0.837555,-0.178775 1.743675,1.131428 3.768978,1.728979 5.860405,1.728979 5.948574,0 10.790211,-4.839184 10.790211,-10.790205 0,-5.948572 -4.839188,-10.79021 -10.790211,-10.79021 -5.948565,0 -10.790211,4.841638 -10.790211,10.79021 0,2.635102 0.96,5.172245 2.70368,7.143674 0.220409,0.249796 0.198364,0.631837 -0.05146,0.854694 C 7.574791,24.453777 7.19276,24.431736 6.972347,24.179489 5.03276,21.987651 3.965,19.163978 3.965,16.234998 3.965,9.6178478 9.347857,4.235 15.965001,4.235 c 6.617147,0 12.000004,5.3828498 12.000004,11.999998 0,6.617144 -5.382857,12.000001 -12.000004,12.000001 z"
       id="path6-36-36-3"
       style="fill:url(#linearGradient1210);fill-opacity:1;stroke-width:0.0244903" />
  </g>
</svg>
