<?xml version="1.0" encoding="UTF-8" standalone="no"?>
<svg
   xmlns:dc="http://purl.org/dc/elements/1.1/"
   xmlns:cc="http://creativecommons.org/ns#"
   xmlns:rdf="http://www.w3.org/1999/02/22-rdf-syntax-ns#"
   xmlns:svg="http://www.w3.org/2000/svg"
   xmlns="http://www.w3.org/2000/svg"
   xmlns:xlink="http://www.w3.org/1999/xlink"
   xmlns:sodipodi="http://sodipodi.sourceforge.net/DTD/sodipodi-0.dtd"
   xmlns:inkscape="http://www.inkscape.org/namespaces/inkscape"
   viewBox="0 0 32 32"
   version="1.1"
   id="svg5"
   sodipodi:docname="system-suspend-hibernate.svg"
   inkscape:version="1.0.1 (3bc2e813f5, 2020-09-07)">
  <metadata
     id="metadata9">
    <rdf:RDF>
      <cc:Work
         rdf:about="">
        <dc:format>image/svg+xml</dc:format>
        <dc:type
           rdf:resource="http://purl.org/dc/dcmitype/StillImage" />
      </cc:Work>
    </rdf:RDF>
  </metadata>
  <sodipodi:namedview
     pagecolor="#ffffff"
     bordercolor="#666666"
     borderopacity="1"
     objecttolerance="10"
     gridtolerance="10"
     guidetolerance="10"
     inkscape:pageopacity="0"
     inkscape:pageshadow="2"
     inkscape:window-width="1920"
     inkscape:window-height="1007"
     id="namedview7"
     showgrid="false"
     inkscape:zoom="10.587158"
     inkscape:cx="-3.5310366"
     inkscape:cy="11.059355"
     inkscape:window-x="0"
     inkscape:window-y="0"
     inkscape:window-maximized="1"
     inkscape:current-layer="svg5"
     inkscape:document-rotation="0" />
  <defs
     id="defs3051">
    <linearGradient
       inkscape:collect="always"
       id="linearGradient844">
      <stop
         style="stop-color:#00ffff;stop-opacity:1"
         offset="0"
         id="stop840" />
      <stop
         style="stop-color:#6262ff;stop-opacity:1"
         offset="1"
         id="stop842" />
    </linearGradient>
    <style
       type="text/css"
       id="current-color-scheme">
      .ColorScheme-Text {
        color:#eff0f1;
      }
      </style>
    <linearGradient
       inkscape:collect="always"
       xlink:href="#linearGradient844"
       id="linearGradient1062"
       x1="-178.10001"
       y1="16.201357"
       x2="-173.76666"
       y2="16.201357"
       gradientUnits="userSpaceOnUse"
       gradientTransform="matrix(0.92307589,0,0,0.92307589,175.65681,1.6643828)" />
    <linearGradient
       inkscape:collect="always"
       xlink:href="#linearGradient844"
       id="linearGradient1070"
       x1="-172.03333"
       y1="16.201357"
       x2="-167.7"
       y2="16.201357"
       gradientUnits="userSpaceOnUse"
       gradientTransform="matrix(0.92307589,0,0,0.92307589,175.65681,1.6643828)" />
    <linearGradient
       inkscape:collect="always"
       xlink:href="#linearGradient844"
       id="linearGradient1054"
       x1="-185.89999"
       y1="16.200001"
       x2="-159.89999"
       y2="16.200001"
       gradientUnits="userSpaceOnUse"
       gradientTransform="matrix(0.92307589,0,0,0.92307589,175.65681,1.6643828)" />
  </defs>
  <g
     id="g896">
    <path
       d="m 13.257015,23.018203 a 2.0023979,2.0023979 0 0 1 -2.000002,-1.999995 v -8.799991 a 1.999998,1.999998 0 0 1 3.999991,0 v 8.799991 a 2.0023979,2.0023979 0 0 1 -1.999989,1.999995 z m 0,-11.999985 a 1.1999987,1.1999987 0 0 0 -1.2,1.199999 v 8.799991 a 1.1999995,1.1999995 0 0 0 2.399999,0 v -8.799991 a 1.1999987,1.1999987 0 0 0 -1.199999,-1.199999 z"
       id="path8-53"
       style="fill:url(#linearGradient1062);fill-opacity:1.0;stroke-width:0.399997" />
    <path
       d="m 18.857,23.018203 a 2.0023979,2.0023979 0 0 1 -1.999989,-1.999995 v -8.799991 a 1.999998,1.999998 0 0 1 3.999991,0 v 8.799991 A 2.0023979,2.0023979 0 0 1 18.857,23.018203 Z m 0,-11.999985 a 1.1999987,1.1999987 0 0 0 -1.199999,1.199999 v 8.799991 a 1.1999995,1.1999995 0 0 0 2.399999,0 v -8.799991 a 1.1999987,1.1999987 0 0 0 -1.2,-1.199999 z"
       id="path10"
       style="fill:url(#linearGradient1070);fill-opacity:1.0;stroke-width:0.399997" />
    <path
       d="m 16.056999,28.618199 c -2.324074,0 -4.57714,-0.663673 -6.519183,-1.922449 -0.281625,-0.181222 -0.36,-0.555912 -0.17877,-0.837547 0.181229,-0.279183 0.555919,-0.36 0.837554,-0.178775 1.743674,1.131429 3.768974,1.72898 5.860399,1.72898 5.948567,0 10.790195,-4.839183 10.790195,-10.790194 0,-5.948564 -4.839184,-10.7901916 -10.790195,-10.7901916 -5.948559,0 -10.790198,4.8416276 -10.790198,10.7901916 0,2.635098 0.96,5.172239 2.703676,7.143667 0.220408,0.249796 0.198366,0.631834 -0.05144,0.854688 -0.25225,0.220409 -0.634281,0.198371 -0.854695,-0.0539 C 5.124759,22.370836 4.057,19.547166 4.057,16.61819 c 0,-6.617135 5.382851,-11.9999859 11.999987,-11.9999859 6.617136,0 11.999984,5.3828509 11.999984,11.9999859 0,6.617137 -5.382848,11.999983 -11.999984,11.999983 z"
       id="path6-36-3-3-3-3"
       style="fill:url(#linearGradient1054);fill-opacity:1;stroke-width:0.0244901" />
  </g>
</svg>
