<?xml version="1.0" encoding="UTF-8" standalone="no"?>
<svg
   xmlns:dc="http://purl.org/dc/elements/1.1/"
   xmlns:cc="http://creativecommons.org/ns#"
   xmlns:rdf="http://www.w3.org/1999/02/22-rdf-syntax-ns#"
   xmlns:svg="http://www.w3.org/2000/svg"
   xmlns="http://www.w3.org/2000/svg"
   xmlns:xlink="http://www.w3.org/1999/xlink"
   xmlns:sodipodi="http://sodipodi.sourceforge.net/DTD/sodipodi-0.dtd"
   xmlns:inkscape="http://www.inkscape.org/namespaces/inkscape"
   viewBox="0 0 32 32"
   version="1.1"
   id="svg5"
   sodipodi:docname="system-suspend.svg"
   inkscape:version="1.0.1 (3bc2e813f5, 2020-09-07)">
  <metadata
     id="metadata9">
    <rdf:RDF>
      <cc:Work
         rdf:about="">
        <dc:format>image/svg+xml</dc:format>
        <dc:type
           rdf:resource="http://purl.org/dc/dcmitype/StillImage" />
      </cc:Work>
    </rdf:RDF>
  </metadata>
  <sodipodi:namedview
     pagecolor="#ffffff"
     bordercolor="#666666"
     borderopacity="1"
     objecttolerance="10"
     gridtolerance="10"
     guidetolerance="10"
     inkscape:pageopacity="0"
     inkscape:pageshadow="2"
     inkscape:window-width="1920"
     inkscape:window-height="1007"
     id="namedview7"
     showgrid="false"
     inkscape:zoom="10.746865"
     inkscape:cx="6.865687"
     inkscape:cy="12.315524"
     inkscape:window-x="0"
     inkscape:window-y="0"
     inkscape:window-maximized="1"
     inkscape:current-layer="svg5"
     inkscape:document-rotation="0" />
  <defs
     id="defs3051">
    <linearGradient
       inkscape:collect="always"
       id="linearGradient843">
      <stop
         style="stop-color:#00d455;stop-opacity:1"
         offset="0"
         id="stop839" />
      <stop
         style="stop-color:#00ccff;stop-opacity:1"
         offset="1"
         id="stop841" />
    </linearGradient>
    <style
       type="text/css"
       id="current-color-scheme">
      .ColorScheme-Text {
        color:#eff0f1;
      }
      </style>
    <linearGradient
       inkscape:collect="always"
       xlink:href="#linearGradient843"
       id="linearGradient1145"
       x1="-39.900002"
       y1="16.200001"
       x2="-24.299999"
       y2="16.200001"
       gradientUnits="userSpaceOnUse"
       gradientTransform="matrix(0.92307681,0,0,0.92307681,45.692554,1.3506436)" />
    <linearGradient
       inkscape:collect="always"
       xlink:href="#linearGradient843"
       id="linearGradient1137"
       x1="-45.099998"
       y1="16.200001"
       x2="-19.1"
       y2="16.200001"
       gradientUnits="userSpaceOnUse"
       gradientTransform="matrix(0.92307681,0,0,0.92307681,45.692554,1.3506436)" />
  </defs>
  <g
     id="g887">
    <path
       d="M 21.261784,18.304485 H 10.86179 a 2.0000005,2.0000005 0 0 1 0,-4 h 10.399994 a 2.0000005,2.0000005 0 0 1 0,4 z m -10.399994,-3.2 a 1.2,1.2 0 0 0 0,2.4 h 10.399994 a 1.2,1.2 0 0 0 0,-2.4 z"
       id="path8-9"
       style="fill:url(#linearGradient1145);fill-opacity:1.0;stroke-width:0.399996" />
    <path
       d="m 16.061779,28.304485 c -2.324074,0 -4.577145,-0.663676 -6.5191877,-1.92245 -0.281625,-0.181224 -0.36,-0.555918 -0.17877,-0.83755 0.18123,-0.279183 0.555919,-0.36 0.8375527,-0.178775 1.743677,1.131429 3.768977,1.728981 5.860405,1.728981 5.94857,0 10.790206,-4.839185 10.790206,-10.790204 0,-5.94857 -4.839187,-10.7902054 -10.790206,-10.7902054 -5.948564,0 -10.7902077,4.8416354 -10.7902077,10.7902054 0,2.635102 0.96,5.172244 2.70368,7.143672 0.220405,0.249796 0.198363,0.631837 -0.05147,0.854694 -0.25225,0.220408 -0.63428,0.198367 -0.854697,-0.05388 -1.939583,-2.191837 -3.007343,-5.01551 -3.007343,-7.944489 0,-6.6171417 5.382853,-11.9999974 11.9999997,-11.9999974 6.617144,0 11.999997,5.3828557 11.999997,11.9999974 0,6.617142 -5.382853,12.000003 -11.999997,12.000003 z"
       id="path6-36-3"
       style="fill:url(#linearGradient1137);fill-opacity:1;stroke-width:0.0244903" />
  </g>
</svg>
