<?xml version="1.0" encoding="UTF-8" standalone="no"?>
<svg
   xmlns:dc="http://purl.org/dc/elements/1.1/"
   xmlns:cc="http://creativecommons.org/ns#"
   xmlns:rdf="http://www.w3.org/1999/02/22-rdf-syntax-ns#"
   xmlns:svg="http://www.w3.org/2000/svg"
   xmlns="http://www.w3.org/2000/svg"
   xmlns:xlink="http://www.w3.org/1999/xlink"
   xmlns:sodipodi="http://sodipodi.sourceforge.net/DTD/sodipodi-0.dtd"
   xmlns:inkscape="http://www.inkscape.org/namespaces/inkscape"
   viewBox="0 0 32 32"
   version="1.1"
   id="svg6"
   sodipodi:docname="system-reboot.svg"
   inkscape:version="1.0.1 (3bc2e813f5, 2020-09-07)">
  <metadata
     id="metadata10">
    <rdf:RDF>
      <cc:Work
         rdf:about="">
        <dc:format>image/svg+xml</dc:format>
        <dc:type
           rdf:resource="http://purl.org/dc/dcmitype/StillImage" />
      </cc:Work>
    </rdf:RDF>
  </metadata>
  <sodipodi:namedview
     pagecolor="#ffffff"
     bordercolor="#666666"
     borderopacity="1"
     objecttolerance="10"
     gridtolerance="10"
     guidetolerance="10"
     inkscape:pageopacity="0"
     inkscape:pageshadow="2"
     inkscape:window-width="1920"
     inkscape:window-height="1007"
     id="namedview8"
     showgrid="false"
     inkscape:zoom="10.746865"
     inkscape:cx="-7.7352455"
     inkscape:cy="13.510629"
     inkscape:window-x="0"
     inkscape:window-y="0"
     inkscape:window-maximized="1"
     inkscape:current-layer="svg6"
     inkscape:document-rotation="0" />
  <defs
     id="defs3051">
    <style
       type="text/css"
       id="current-color-scheme">
      .ColorScheme-Text {
        color:#eff0f1;
      }
      </style>
    <linearGradient
       inkscape:collect="always"
       xlink:href="#linearGradient1084"
       id="linearGradient1097"
       x1="-133.26666"
       y1="17.5"
       x2="-121.13333"
       y2="17.5"
       gradientUnits="userSpaceOnUse"
       gradientTransform="matrix(0.9230769,0,0,0.9230769,132.13519,0.97871464)" />
    <linearGradient
       inkscape:collect="always"
       id="linearGradient1084">
      <stop
         style="stop-color:#d45500;stop-opacity:1;"
         offset="0"
         id="stop1080" />
      <stop
         style="stop-color:#ffcc00;stop-opacity:1"
         offset="1"
         id="stop1082" />
    </linearGradient>
    <linearGradient
       inkscape:collect="always"
       xlink:href="#linearGradient1084"
       id="linearGradient1086"
       x1="-138.89999"
       y1="16.199999"
       x2="-112.9"
       y2="16.199999"
       gradientUnits="userSpaceOnUse"
       gradientTransform="matrix(0.9230769,0,0,0.9230769,132.13519,0.97871464)" />
  </defs>
  <g
     id="g874">
    <path
       d="m 18.319813,22.73256 a 2.0023998,2.0023998 0 0 1 -2.000006,-1.999999 v -5.2 h -5.199993 a 2.0000003,2.0000003 0 0 1 0,-4 h 8.000003 a 1.2000001,1.2000001 0 0 1 1.2,1.2 v 8 A 2.0023998,2.0023998 0 0 1 18.319813,22.73256 Z M 11.119814,12.332561 a 1.2000001,1.2000001 0 0 0 0,2.4 h 5.600003 a 0.39999998,0.39999998 0 0 1 0.399997,0.4 v 5.6 a 1.2000001,1.2000001 0 0 0 2.399999,0 v -8 a 0.39999998,0.39999998 0 0 0 -0.399996,-0.4 z"
       id="path2-75356"
       style="fill:url(#linearGradient1097);fill-opacity:1;stroke-width:0.4" />
    <path
       d="m 15.919805,27.932561 c -2.324078,0 -4.577145,-0.663673 -6.5191905,-1.922451 -0.281627,-0.181225 -0.36,-0.555916 -0.178771,-0.837549 0.18123,-0.279184 0.555919,-0.36 0.8375565,-0.178775 1.743674,1.131431 3.768974,1.728982 5.860405,1.728982 5.94857,0 10.790203,-4.839186 10.790203,-10.790206 0,-5.9485711 -4.839185,-10.7902054 -10.790203,-10.7902054 -5.9485685,0 -10.7902115,4.8416343 -10.7902115,10.7902054 0,2.635102 0.96,5.172245 2.703679,7.143673 0.220409,0.249796 0.198368,0.631836 -0.05143,0.854693 -0.252249,0.220409 -0.63428,0.198367 -0.854694,-0.05388 -1.939586,-2.191837 -3.007346,-5.01551 -3.007346,-7.944489 0,-6.6171424 5.382856,-12.0000004 12.0000015,-12.0000004 6.617142,0 11.999998,5.382858 11.999998,12.0000004 0,6.617142 -5.382856,12 -11.999998,12 z"
       id="path6-36-3-3-3"
       style="fill:url(#linearGradient1086);fill-opacity:1;stroke-width:0.0244899" />
  </g>
</svg>
