<?xml version="1.0" encoding="UTF-8" standalone="no"?>
<svg
   xmlns:dc="http://purl.org/dc/elements/1.1/"
   xmlns:cc="http://creativecommons.org/ns#"
   xmlns:rdf="http://www.w3.org/1999/02/22-rdf-syntax-ns#"
   xmlns:svg="http://www.w3.org/2000/svg"
   xmlns="http://www.w3.org/2000/svg"
   xmlns:xlink="http://www.w3.org/1999/xlink"
   xmlns:sodipodi="http://sodipodi.sourceforge.net/DTD/sodipodi-0.dtd"
   xmlns:inkscape="http://www.inkscape.org/namespaces/inkscape"
   viewBox="0 0 30.638723 29.765469"
   version="1.1"
   id="svg6"
   sodipodi:docname="office-chart-pie.svg"
   inkscape:version="1.0.1 (3bc2e813f5, 2020-09-07)"
   width="30.638723"
   height="29.765469">
  <metadata
     id="metadata10">
    <rdf:RDF>
      <cc:Work
         rdf:about="">
        <dc:format>image/svg+xml</dc:format>
        <dc:type
           rdf:resource="http://purl.org/dc/dcmitype/StillImage" />
      </cc:Work>
    </rdf:RDF>
  </metadata>
  <sodipodi:namedview
     pagecolor="#ffffff"
     bordercolor="#666666"
     borderopacity="1"
     objecttolerance="10"
     gridtolerance="10"
     guidetolerance="10"
     inkscape:pageopacity="0"
     inkscape:pageshadow="2"
     inkscape:window-width="1920"
     inkscape:window-height="1007"
     id="namedview8"
     showgrid="false"
     inkscape:zoom="10.727273"
     inkscape:cx="4.1989701"
     inkscape:cy="16.523373"
     inkscape:window-x="0"
     inkscape:window-y="0"
     inkscape:window-maximized="1"
     inkscape:current-layer="svg6"
     inkscape:document-rotation="0" />
  <defs
     id="defs3051">
    <style
       type="text/css"
       id="current-color-scheme">
      .ColorScheme-Text {
        color:#eff0f1;
      }
      </style>
    <linearGradient
       inkscape:collect="always"
       xlink:href="#linearGradient906"
       id="linearGradient1094"
       x1="97.982002"
       y1="16.115999"
       x2="123.982"
       y2="16.115999"
       gradientUnits="userSpaceOnUse"
       gradientTransform="translate(-95.642001,-1.1329901)" />
    <linearGradient
       inkscape:collect="always"
       id="linearGradient906">
      <stop
         style="stop-color:#0090b2;stop-opacity:1"
         offset="0"
         id="stop902" />
      <stop
         style="stop-color:#00d6d6;stop-opacity:1"
         offset="1"
         id="stop904" />
    </linearGradient>
    <linearGradient
       inkscape:collect="always"
       xlink:href="#linearGradient906"
       id="linearGradient872-3"
       x1="32.009319"
       y1="28.016975"
       x2="31.060434"
       y2="2.9231923"
       gradientUnits="userSpaceOnUse"
       gradientTransform="matrix(0,0.37568798,-0.4024902,0,29.07808,2.8890561)" />
  </defs>
  <g
     data-name="Pie chart"
     id="g8"
     transform="matrix(0,0.26666609,-0.26666609,0,19.717902,1.4019248)" />
  <g
     id="g867"
     transform="matrix(1,0,0,0.96547523,0,0.56646262)">
    <g
       id="g862">
      <path
         d="m 15.340015,27.982993 c -2.517758,0 -4.958591,-0.718986 -7.0624566,-2.082655 -0.305103,-0.19633 -0.3899968,-0.602242 -0.193669,-0.907345 0.1963413,-0.302451 0.6022354,-0.39 0.9073452,-0.193683 1.8889924,1.225721 4.0830654,1.873065 6.3487804,1.873065 6.444277,0 11.689372,-5.242434 11.689372,-11.689379 0,-6.4442732 -5.242431,-11.6893904 -11.689372,-11.6893904 -6.4442913,0 -11.6893935,5.2451172 -11.6893935,11.6893904 0,2.854688 1.0399998,5.603263 2.9289737,7.738981 0.2387781,0.270596 0.2149029,0.684491 -0.055722,0.925915 C 6.2506028,23.886675 5.8367398,23.862783 5.5979547,23.589537 3.4967406,21.215036 2.34,18.156052 2.34,14.983 c 0,-7.1685815 5.8314046,-13 13.000003,-13 7.168578,0 12.999995,5.8314185 12.999995,13 0,7.168576 -5.831417,12.999999 -12.999995,12.999999 z"
         id="path6-36"
         style="fill:url(#linearGradient1094);fill-opacity:1;stroke-width:0.0265317" />
      <path
         d="m 25.289065,7.8481404 a 0.31716225,0.29604217 0 0 0 -0.0402,0.00767 0.39484297,0.36855 0 0 0 -0.138399,0.083409 l -7.184444,6.7059686 a 0.40249033,0.37568807 0 0 0 0,0.531208 l 7.18446,6.706042 a 0.39484297,0.36855 0 0 0 0.138339,0.08333 0.31716225,0.29604217 0 0 0 0.04021,0.0076 0.40249033,0.37568807 0 0 0 0.120634,0.01686 c 0.0026,0 0.0074,0 0.01022,0 a 0.38840307,0.36253891 0 0 0 0.04696,-0.01161 0.37793849,0.35277106 0 0 0 0.09736,-0.02552 0.38518318,0.35953338 0 0 0 0.0599,-0.03757 0.39886786,0.37230693 0 0 0 0.05595,-0.03492 c 0.0057,-0.0057 0.0085,-0.01409 0.01564,-0.0199 0.0054,-0.0064 0.01496,-0.0078 0.01826,-0.01423 a 12.06625,11.262753 0 0 0 0,-13.8756601 c -0.0043,-0.00594 -0.01138,-0.00867 -0.01826,-0.013792 -0.0045,-0.00526 -0.0074,-0.014486 -0.01564,-0.019926 a 0.39886786,0.37230693 0 0 0 -0.05595,-0.034932 0.38518318,0.35953338 0 0 0 -0.0599,-0.037558 0.37793849,0.35277106 0 0 0 -0.09736,-0.025544 0.38840307,0.36253891 0 0 0 -0.04696,-0.012158 c -0.0019,0 -0.0064,0 -0.01022,0 a 0.40249033,0.37568807 0 0 0 -0.120634,0.02144 z m 2.179075,7.0629316 a 11.126441,10.385524 0 0 1 -2.115494,6.134994 l -6.572655,-6.134994 6.572655,-6.1349778 a 11.126441,10.385524 0 0 1 2.115494,6.1349778 z"
         id="path6-5"
         style="fill:url(#linearGradient872-3);fill-opacity:1;stroke-width:0.388866" />
    </g>
  </g>
</svg>
